<svg width="199" height="75" viewBox="0 0 199 75" fill="none" xmlns="http://www.w3.org/2000/svg">
<path d="M44.5627 40.8705C48.4214 35.916 50.0751 29.6769 50.0751 25.0893C50.0751 15.9142 44.1952 0.5 25.0854 0.5C5.97564 0.5 0.0957031 15.9142 0.0957031 25.0893C0.0957031 34.2644 5.97564 49.6786 25.0854 49.6786C30.9653 49.6786 35.7428 48.2106 39.234 45.8251L47.8701 51.8807L49.5239 49.4951L30.7816 36.283L28.9441 38.6685L36.4778 43.9901C33.3541 45.8251 29.4954 46.9261 24.9017 46.9261C10.7531 46.9261 2.85192 36.283 2.85192 24.9058C2.85192 13.5287 10.5693 2.88553 24.9017 2.88553C39.0502 2.88553 46.9514 13.5287 46.9514 24.9058C46.9514 30.0439 45.2977 34.9984 42.1739 39.0355L44.5627 40.8705ZM77.6373 28.7594L99.5033 1.41751H95.6446L75.9835 25.8233L56.8738 1.41751H52.6476L74.5136 28.7594V48.5776H77.6373V28.7594ZM135.885 25.6398C142.5 23.9883 145.624 18.6667 145.624 13.8957C145.624 3.98654 138.825 1.41751 129.638 1.41751H105.567V3.98654H108.691H130.005C136.62 3.98654 142.684 6.00507 142.684 13.7122C142.684 24.5388 132.21 24.5388 129.27 24.5388H108.691H105.567V48.5776H108.691V27.1078H129.638C139.009 27.1078 141.581 29.4934 141.765 37.5675C141.949 44.7241 142.316 47.6601 143.051 48.5776H146.175C145.256 46.9261 145.073 44.1736 144.889 35.549C144.521 30.4109 141.581 26.3738 135.885 25.6398ZM187.151 30.7779H163.447L175.207 4.90405L187.151 30.7779ZM198.727 48.5776L177.045 1.41751H173.554L151.871 48.5776H155.363L162.345 33.3469H188.437L195.42 48.5776H198.727Z" fill="#1A1A1A"/>
<path d="M178.696 71.5165H179.615V67.4795C179.615 66.0114 179.064 64.9104 176.859 64.9104C175.389 64.9104 174.47 65.6444 174.286 66.3784V65.0939H173.368V71.5165H174.286V68.03C174.286 66.562 175.021 65.6444 176.859 65.6444C177.961 65.6444 178.88 66.0114 178.88 67.296V71.5165H178.696ZM170.244 69.498C169.876 70.4155 169.325 70.966 167.671 70.966C166.018 70.966 165.099 69.865 165.099 68.5805H171.346C171.346 65.6444 169.325 64.9104 167.671 64.9104C165.283 64.9104 164.18 66.562 164.18 68.2135C164.18 69.865 165.099 71.5165 167.671 71.5165C169.876 71.5165 170.795 70.4155 171.163 69.3145H170.244V69.498ZM165.099 67.8465C165.283 66.195 166.569 65.6444 167.671 65.6444C168.958 65.6444 170.06 66.195 170.244 67.8465H165.099ZM161.424 66.3784C161.056 65.4609 159.954 64.9104 158.668 64.9104C156.279 64.9104 155.177 66.562 155.177 68.2135C155.177 70.7825 157.014 71.5165 158.484 71.5165C160.138 71.5165 161.056 70.7825 161.24 70.0485V71.1495C161.24 72.6175 160.321 73.535 158.668 73.535C156.463 73.535 156.279 72.801 156.279 72.067H155.36C155.36 72.801 155.728 74.0856 158.668 74.0856C160.321 74.0856 162.343 73.535 162.343 71.1495V64.9104H161.424V66.3784ZM161.424 68.2135C161.424 69.865 160.321 70.7825 158.851 70.7825C157.382 70.7825 156.095 70.0485 156.095 68.2135C156.095 66.562 157.198 65.6444 158.668 65.6444C160.505 65.6444 161.424 66.7455 161.424 68.2135ZM148.01 67.1125C148.01 66.0114 148.745 65.6444 150.215 65.6444C151.685 65.6444 152.42 66.0114 152.42 66.929C152.42 67.4795 152.237 67.663 150.215 67.8465C148.745 67.8465 147.092 68.03 147.092 69.865C147.092 71.333 148.562 71.7 149.664 71.7C151.685 71.7 152.42 70.7825 152.604 70.4155C152.604 70.966 152.604 71.5165 153.523 71.5165C153.89 71.5165 154.074 71.5165 154.258 71.333V70.7825C154.074 70.7825 153.89 70.7825 153.707 70.7825C153.339 70.7825 153.155 70.599 153.155 70.0485V66.7455C153.155 65.4609 152.42 64.9104 150.215 64.9104C148.01 64.9104 147.275 65.6444 147.092 67.1125H148.01ZM152.42 68.9475C152.42 70.232 150.95 70.966 149.664 70.966C148.745 70.966 147.827 70.599 147.827 69.6815C147.827 68.9475 148.378 68.5805 149.48 68.5805C151.318 68.397 151.869 68.397 152.237 68.03V68.9475H152.42ZM144.335 71.5165H145.254V62.7084H144.335V71.5165ZM141.212 71.5165H142.13V62.7084H141.212V71.5165ZM132.024 68.2135C132.024 70.0485 133.127 71.5165 135.699 71.5165C138.088 71.5165 139.374 69.865 139.374 68.2135C139.374 66.3784 138.272 64.9104 135.699 64.9104C133.311 64.9104 132.024 66.562 132.024 68.2135ZM132.943 68.2135C132.943 66.7455 133.862 65.6444 135.699 65.6444C137.353 65.6444 138.455 66.7455 138.455 68.2135C138.455 69.6815 137.537 70.7825 135.699 70.7825C134.046 70.966 132.943 69.865 132.943 68.2135ZM129.452 68.2135C129.084 69.865 128.166 70.966 125.961 70.966C123.204 70.966 122.286 69.131 122.286 67.1125C122.286 64.5434 123.756 63.2589 125.961 63.2589C127.614 63.2589 129.084 63.9929 129.268 65.6444H130.187C130.003 63.2589 127.798 62.5249 125.961 62.5249C122.469 62.5249 121.367 65.0939 121.367 67.1125C121.367 69.865 123.204 71.7 125.961 71.7C128.533 71.7 130.187 70.0485 130.371 68.2135H129.452ZM114.385 69.498C114.017 70.4155 113.466 70.966 111.812 70.966C110.158 70.966 109.24 69.865 109.24 68.5805H115.487C115.487 65.6444 113.466 64.9104 111.812 64.9104C109.423 64.9104 108.321 66.562 108.321 68.2135C108.321 69.865 109.24 71.5165 111.812 71.5165C114.017 71.5165 114.936 70.4155 115.303 69.3145H114.385V69.498ZM109.423 67.8465C109.607 66.195 110.893 65.6444 111.996 65.6444C113.282 65.6444 114.385 66.195 114.568 67.8465H109.423ZM103.36 71.5165H104.278V68.2135C104.278 66.3784 105.565 65.828 106.483 65.828C106.851 65.828 107.035 65.828 107.402 65.828V64.9104C107.218 64.9104 107.035 64.9104 106.851 64.9104C105.381 64.9104 104.646 65.8279 104.462 66.5619V65.0939H103.543V71.5165H103.36ZM95.826 67.1125C95.826 66.0114 96.561 65.6444 98.031 65.6444C99.5009 65.6444 100.236 66.0114 100.236 66.929C100.236 67.4795 100.052 67.663 98.031 67.8465C96.561 67.8465 94.9072 68.03 94.9072 69.865C94.9072 71.333 96.3772 71.7 97.4797 71.7C99.5009 71.7 100.236 70.7825 100.42 70.4155C100.42 70.966 100.42 71.5165 101.338 71.5165C101.706 71.5165 101.89 71.5165 102.073 71.333V70.7825C101.89 70.7825 101.706 70.7825 101.522 70.7825C101.155 70.7825 100.971 70.599 100.971 70.0485V66.7455C100.971 65.4609 100.236 64.9104 98.031 64.9104C95.826 64.9104 95.091 65.6444 94.9072 67.1125H95.826ZM100.236 68.9475C100.236 70.232 98.766 70.966 97.4797 70.966C96.561 70.966 95.6422 70.599 95.6422 69.6815C95.6422 68.9475 96.1935 68.5805 97.296 68.5805C99.1334 68.397 99.6847 68.397 100.052 68.03V68.9475H100.236ZM92.3348 68.2135C91.9673 69.865 91.0485 70.966 88.8436 70.966C86.0873 70.966 85.1686 69.131 85.1686 67.1125C85.1686 64.5434 86.6386 63.2589 88.8436 63.2589C90.4973 63.2589 91.9673 63.9929 92.151 65.6444H93.0698C92.886 63.2589 90.681 62.5249 88.8436 62.5249C85.3523 62.5249 84.2499 65.0939 84.2499 67.1125C84.2499 69.865 86.0873 71.7 88.8436 71.7C91.416 71.7 93.0698 70.0485 93.2535 68.2135H92.3348ZM77.2675 69.498C76.9 70.4155 76.3487 70.966 74.695 70.966C73.0413 70.966 72.1225 69.865 72.1225 68.5805H78.3699C78.3699 65.6444 76.3487 64.9104 74.695 64.9104C72.3063 64.9104 71.2038 66.562 71.2038 68.2135C71.2038 69.865 72.1225 71.5165 74.695 71.5165C76.9 71.5165 77.8187 70.4155 78.1862 69.3145H77.2675V69.498ZM72.1225 67.8465C72.3063 66.195 73.5925 65.6444 74.695 65.6444C75.9812 65.6444 77.0837 66.195 77.2675 67.8465H72.1225ZM66.6101 70.4155L64.0376 65.0939H63.1189L66.0588 71.5165H66.9776L69.9175 65.0939H68.9988L66.6101 70.4155ZM60.9139 63.9929H61.8326V62.7084H60.9139V63.9929ZM60.9139 71.5165H61.8326V65.0939H60.9139V71.5165ZM58.8927 66.929C58.7089 65.6444 57.9739 64.9104 55.7689 64.9104C53.9315 64.9104 53.0127 65.6444 53.0127 66.7455C53.0127 67.8465 53.7477 68.397 55.7689 68.5805C57.7902 68.764 58.1577 69.131 58.1577 69.6815C58.1577 70.599 57.2389 70.966 55.9527 70.966C54.299 70.966 53.7477 70.599 53.564 69.498H52.829C52.829 70.966 54.1152 71.7 56.1365 71.7C58.1577 71.7 59.2602 70.966 59.2602 69.6815C59.2602 68.397 58.5252 68.03 56.5039 67.8465C54.4827 67.663 54.1152 67.4795 54.1152 66.7455C54.1152 65.828 55.034 65.6444 55.9527 65.6444C57.2389 65.6444 57.9739 66.0114 58.1577 66.929H58.8927ZM50.2565 71.5165H51.1753V67.4795C51.1753 66.0114 50.624 64.9104 48.419 64.9104C46.9491 64.9104 46.0303 65.6444 45.8466 66.3784V65.0939H44.9278V71.5165H45.8466V68.03C45.8466 66.562 46.5816 65.6444 48.419 65.6444C49.5215 65.6444 50.4403 66.0114 50.4403 67.296V71.5165H50.2565ZM41.8041 69.498C41.4366 70.4155 40.8854 70.966 39.2316 70.966C37.5779 70.966 36.6592 69.865 36.6592 68.5805H42.9066C42.9066 65.6444 40.8854 64.9104 39.2316 64.9104C36.8429 64.9104 35.7404 66.562 35.7404 68.2135C35.7404 69.865 36.6592 71.5165 39.2316 71.5165C41.4366 71.5165 42.3554 70.4155 42.7229 69.3145H41.8041V69.498ZM36.8429 67.8465C37.0267 66.195 38.3129 65.6444 39.4154 65.6444C40.7016 65.6444 41.8041 66.195 41.9879 67.8465H36.8429ZM31.698 65.0939H30.228V65.828H31.698V70.0485C31.698 71.1495 32.0655 71.7 33.3517 71.7C33.7192 71.7 34.0867 71.7 34.2705 71.7V70.966C34.0867 70.966 33.903 70.966 33.3517 70.966C32.6167 70.966 32.433 70.7825 32.433 70.232V66.0114H34.2705V65.2774H32.433V63.2589H31.5142V65.0939H31.698ZM28.023 71.5165H28.9418V67.4795C28.9418 66.0114 28.3905 64.9104 26.1855 64.9104C24.7156 64.9104 23.7968 65.6444 23.6131 66.3784V65.0939H22.6943V71.5165H23.4293V68.03C23.4293 66.562 24.1643 65.6444 26.0018 65.6444C27.1043 65.6444 28.023 66.0114 28.023 67.296V71.5165ZM19.2031 71.5165H20.1219V62.7084H19.2031V71.5165Z" fill="#1A1A1A"/>
<path d="M193.027 4.90366H194.129C194.496 4.90366 194.864 4.72015 194.864 4.35315C194.864 3.98615 194.497 3.61914 193.945 3.61914H193.027V4.90366ZM192.292 2.88513H193.945C194.864 2.88513 195.966 3.06864 195.966 4.53666C195.966 5.45417 195.415 5.63767 195.048 5.82117L195.966 8.0232H195.048L194.313 6.00467H193.21V7.8397H192.292V2.88513ZM193.945 9.30772C196.15 9.30772 197.988 7.47269 197.988 5.27066C197.988 3.06863 196.15 1.23361 193.945 1.23361C191.74 1.23361 189.903 3.06863 189.903 5.27066C189.903 7.65619 191.74 9.30772 193.945 9.30772ZM189.352 5.45417C189.352 2.88513 191.557 0.683105 194.129 0.683105C196.701 0.683105 198.906 2.88513 198.906 5.45417C198.906 8.0232 196.885 10.2252 194.129 10.2252C191.373 10.0417 189.352 8.0232 189.352 5.45417Z" fill="#1A1A1A"/>
</svg>
