<svg width="184" height="69" fill="none" xmlns="http://www.w3.org/2000/svg"><path d="M41.227 37.405c3.566-4.579 5.094-10.345 5.094-14.584 0-8.48-5.434-22.724-23.094-22.724S.133 14.342.133 22.82c0 8.479 5.434 22.724 23.094 22.724 5.434 0 9.849-1.357 13.075-3.562l7.981 5.597 1.529-2.205-17.321-12.21-1.698 2.205 6.962 4.918C30.868 41.984 27.302 43 23.057 43 9.982 43 2.68 33.164 2.68 22.65 2.68 12.136 9.812 2.3 23.057 2.3c13.075 0 20.377 9.836 20.377 20.35 0 4.748-1.528 9.327-4.415 13.058l2.208 1.696Zm30.565-11.193L92 .945h-3.566l-18.17 22.554L52.604.945h-3.906l20.208 25.267v18.315h2.886V26.212Zm53.83-2.883c6.113-1.526 9-6.444 9-10.853 0-9.157-6.283-11.531-14.774-11.531H97.603v2.374h22.585c6.113 0 11.717 1.865 11.717 8.988 0 10.005-9.679 10.005-12.396 10.005H97.603v22.215h2.887v-19.84h19.358c8.661 0 11.038 2.204 11.208 9.665.17 6.614.509 9.327 1.188 10.175h2.887c-.849-1.526-1.019-4.07-1.188-12.04-.34-4.748-3.057-8.48-8.321-9.158Zm47.377 4.749h-21.906l10.868-23.911 11.038 23.91Zm10.698 16.45L163.659.944h-3.226l-20.038 43.582h3.227l6.452-14.075h24.113l6.453 14.075h3.057Zm-18.513 21.197h.849v-3.731c0-1.357-.51-2.374-2.548-2.374-1.358 0-2.207.678-2.377 1.356V59.79h-.849v5.936h.849v-3.222c0-1.357.679-2.205 2.377-2.205 1.019 0 1.868.34 1.868 1.526v3.9h-.169Zm-7.812-1.866c-.339.848-.849 1.357-2.377 1.357-1.528 0-2.377-1.018-2.377-2.205h5.773c0-2.713-1.868-3.391-3.396-3.391-2.208 0-3.226 1.526-3.226 3.052s.849 3.053 3.226 3.053c2.038 0 2.887-1.018 3.226-2.035h-.849v.17Zm-4.754-1.526c.169-1.526 1.358-2.035 2.377-2.035 1.189 0 2.207.509 2.377 2.035h-4.754Zm-3.397-1.357c-.339-.848-1.358-1.356-2.547-1.356-2.207 0-3.226 1.526-3.226 3.052 0 2.374 1.698 3.053 3.056 3.053 1.529 0 2.378-.679 2.548-1.357v1.017c0 1.357-.849 2.205-2.378 2.205-2.037 0-2.207-.678-2.207-1.357h-.849c0 .679.339 1.866 3.056 1.866 1.529 0 3.396-.509 3.396-2.714V59.62h-.849v1.356Zm0 1.696c0 1.526-1.018 2.374-2.377 2.374-1.358 0-2.547-.678-2.547-2.374 0-1.526 1.019-2.374 2.377-2.374 1.698 0 2.547 1.017 2.547 2.374Zm-12.396-1.017c0-1.018.68-1.357 2.038-1.357 1.359 0 2.038.34 2.038 1.187 0 .509-.17.678-2.038.848-1.358 0-2.887.17-2.887 1.865 0 1.357 1.359 1.696 2.378 1.696 1.868 0 2.547-.848 2.717-1.187 0 .509 0 1.018.849 1.018.339 0 .509 0 .679-.17v-.509h-.51c-.339 0-.509-.17-.509-.678v-3.053c0-1.187-.679-1.695-2.717-1.695-2.038 0-2.717.678-2.887 2.035h.849Zm4.076 1.695c0 1.187-1.359 1.866-2.547 1.866-.849 0-1.698-.34-1.698-1.187 0-.679.509-1.018 1.528-1.018 1.698-.17 2.207-.17 2.547-.509v.848h.17Zm-7.472 2.375h.849v-8.14h-.849v8.14Zm-2.887 0h.849v-8.14h-.849v8.14Zm-8.49-3.053c0 1.696 1.019 3.053 3.396 3.053 2.208 0 3.396-1.527 3.396-3.053 0-1.696-1.019-3.052-3.396-3.052-2.207 0-3.396 1.526-3.396 3.052Zm.849 0c0-1.357.849-2.374 2.547-2.374 1.528 0 2.547 1.017 2.547 2.374 0 1.357-.849 2.374-2.547 2.374-1.528.17-2.547-.848-2.547-2.374Zm-3.226 0c-.34 1.526-1.189 2.544-3.227 2.544-2.547 0-3.396-1.696-3.396-3.561 0-2.375 1.359-3.562 3.396-3.562 1.529 0 2.887.679 3.057 2.205h.849c-.17-2.205-2.208-2.883-3.906-2.883-3.226 0-4.245 2.374-4.245 4.24 0 2.543 1.698 4.24 4.245 4.24 2.378 0 3.906-1.527 4.076-3.223h-.849ZM105.75 63.86c-.339.848-.849 1.357-2.377 1.357-1.528 0-2.377-1.018-2.377-2.205h5.773c0-2.713-1.868-3.391-3.396-3.391-2.208 0-3.226 1.526-3.226 3.052s.849 3.053 3.226 3.053c2.038 0 2.887-1.018 3.226-2.035h-.849v.17Zm-4.585-1.526c.17-1.526 1.359-2.035 2.378-2.035 1.188 0 2.207.509 2.377 2.035h-4.755Zm-5.603 3.392h.849v-3.053c0-1.696 1.188-2.204 2.037-2.204h.85v-.848h-.51c-1.358 0-2.038.848-2.207 1.526V59.79h-.85v5.936h-.17Zm-6.962-4.07c0-1.018.679-1.357 2.037-1.357 1.359 0 2.038.34 2.038 1.187 0 .509-.17.678-2.038.848-1.358 0-2.886.17-2.886 1.865 0 1.357 1.358 1.696 2.377 1.696 1.868 0 2.547-.848 2.717-1.187 0 .509 0 1.018.849 1.018.34 0 .51 0 .679-.17v-.509h-.51c-.339 0-.509-.17-.509-.678v-3.053c0-1.187-.68-1.695-2.717-1.695s-2.717.678-2.886 2.035h.849Zm4.075 1.695c0 1.187-1.358 1.866-2.547 1.866-.85 0-1.698-.34-1.698-1.187 0-.679.51-1.018 1.528-1.018 1.698-.17 2.207-.17 2.547-.509v.848h.17Zm-7.302-.678c-.34 1.526-1.189 2.544-3.226 2.544-2.547 0-3.396-1.696-3.396-3.561 0-2.375 1.358-3.562 3.396-3.562 1.528 0 2.886.679 3.056 2.205h.85c-.17-2.205-2.208-2.883-3.906-2.883-3.227 0-4.246 2.374-4.246 4.24 0 2.543 1.699 4.24 4.246 4.24 2.377 0 3.905-1.527 4.075-3.223h-.849ZM71.45 63.86c-.34.848-.85 1.357-2.377 1.357-1.529 0-2.378-1.018-2.378-2.205h5.774c0-2.713-1.868-3.391-3.397-3.391-2.207 0-3.226 1.526-3.226 3.052s.85 3.053 3.227 3.053c2.037 0 2.886-1.018 3.226-2.035h-.85v.17Zm-4.755-1.526c.17-1.526 1.359-2.035 2.377-2.035 1.19 0 2.208.509 2.378 2.035h-4.755ZM61.6 64.707l-2.378-4.918h-.849l2.717 5.936h.85l2.716-5.936h-.849L61.6 64.707Zm-5.264-5.935h.849v-1.187h-.85v1.187Zm0 6.953h.849v-5.936h-.85v5.936Zm-1.868-4.24c-.17-1.187-.85-1.865-2.887-1.865-1.698 0-2.547.678-2.547 1.695 0 1.018.68 1.527 2.547 1.696 1.868.17 2.208.509 2.208 1.018 0 .848-.85 1.187-2.038 1.187-1.528 0-2.038-.34-2.208-1.357h-.679c0 1.357 1.189 2.035 3.057 2.035 1.868 0 2.886-.678 2.886-1.865 0-1.187-.679-1.526-2.547-1.696-1.868-.17-2.207-.34-2.207-1.018 0-.847.849-1.017 1.698-1.017 1.189 0 1.868.34 2.038 1.187h.679Zm-7.981 4.24h.849v-3.731c0-1.357-.51-2.374-2.547-2.374-1.359 0-2.208.678-2.378 1.356V59.79h-.849v5.936h.85v-3.222c0-1.357.679-2.205 2.377-2.205 1.019 0 1.868.34 1.868 1.526v3.9h-.17Zm-7.811-1.866c-.34.848-.85 1.357-2.378 1.357s-2.377-1.018-2.377-2.205h5.773c0-2.713-1.867-3.391-3.396-3.391-2.207 0-3.226 1.526-3.226 3.052s.849 3.053 3.226 3.053c2.038 0 2.887-1.018 3.227-2.035h-.85v.17Zm-4.585-1.526c.17-1.526 1.358-2.035 2.377-2.035 1.189 0 2.208.509 2.377 2.035h-4.754Zm-4.755-2.544h-1.358v.678h1.358v3.9c0 1.018.34 1.527 1.528 1.527h.85v-.678h-.85c-.679 0-.849-.17-.849-.678v-3.9h1.698v-.68h-1.698v-1.865h-.849v1.696h.17Zm-3.396 5.936h.849v-3.731c0-1.357-.51-2.374-2.547-2.374-1.359 0-2.208.678-2.378 1.356V59.79h-.849v5.936h.68v-3.222c0-1.357.679-2.205 2.377-2.205 1.019 0 1.868.34 1.868 1.526v3.9Zm-8.15 0h.848v-8.14h-.849v8.14ZM178.435 4.167h1.019c.34 0 .679-.17.679-.509 0-.339-.339-.678-.849-.678h-.849v1.187Zm-.679-1.865h1.528c.849 0 1.868.17 1.868 1.526 0 .848-.509 1.017-.849 1.187l.849 2.035h-.849l-.679-1.866h-1.019V6.88h-.849V2.302Zm1.528 5.935c2.038 0 3.736-1.696 3.736-3.73 0-2.036-1.698-3.732-3.736-3.732-2.037 0-3.736 1.696-3.736 3.731 0 2.205 1.699 3.731 3.736 3.731Zm-4.245-3.561c0-2.374 2.038-4.41 4.415-4.41 2.377 0 4.415 2.036 4.415 4.41s-1.868 4.409-4.415 4.409c-2.547-.17-4.415-2.035-4.415-4.41Z" fill="#fff"/></svg>