<svg width="184" height="69" viewBox="0 0 184 69" fill="none" xmlns="http://www.w3.org/2000/svg">
<path d="M41.2267 37.4048C44.7926 32.8261 46.3209 27.0603 46.3209 22.8207C46.3209 14.3416 40.887 0.0966797 23.2269 0.0966797C5.56671 0.0966797 0.132812 14.3416 0.132812 22.8207C0.132812 31.2998 5.56671 45.5448 23.2269 45.5448C28.6608 45.5448 33.0758 44.1881 36.3022 41.9835L44.2832 47.5798L45.8115 45.3752L28.491 33.1653L26.7929 35.3698L33.755 40.2877C30.8683 41.9835 27.3023 43.001 23.0571 43.001C9.98176 43.001 2.67995 33.1653 2.67995 22.6511C2.67995 12.137 9.81195 2.30125 23.0571 2.30125C36.1324 2.30125 43.4342 12.137 43.4342 22.6511C43.4342 27.3995 41.9059 31.9782 39.0191 35.709L41.2267 37.4048ZM71.7923 26.2124L91.9996 0.944592H88.4336L70.264 23.4991L52.6039 0.944592H48.6983L68.9056 26.2124V44.5273H71.7923V26.2124ZM125.622 23.3295C131.735 21.8032 134.622 16.8853 134.622 12.4762C134.622 3.31874 128.339 0.944592 119.848 0.944592H97.6033V3.31874H100.49H120.188C126.301 3.31874 131.905 5.18415 131.905 12.3066C131.905 22.312 122.226 22.312 119.509 22.312H100.49H97.6033V44.5273H100.49V24.6861H119.848C128.509 24.6861 130.886 26.8907 131.056 34.3523C131.226 40.966 131.565 43.6794 132.244 44.5273H135.131C134.282 43.001 134.112 40.4573 133.943 32.4869C133.603 27.7386 130.886 24.0078 125.622 23.3295ZM172.999 28.0778H151.093L161.961 4.16665L172.999 28.0778ZM183.697 44.5273L163.659 0.944592H160.433L140.395 44.5273H143.622L150.074 30.4519H174.187L180.64 44.5273H183.697Z" fill="white"/>
<path d="M165.184 65.7246H166.033V61.9938C166.033 60.6371 165.523 59.6196 163.485 59.6196C162.127 59.6196 161.278 60.2979 161.108 60.9763V59.7892H160.259V65.7246H161.108V62.5025C161.108 61.1459 161.787 60.2979 163.485 60.2979C164.504 60.2979 165.353 60.6371 165.353 61.8242V65.7246H165.184ZM157.372 63.8592C157.033 64.7071 156.523 65.2158 154.995 65.2158C153.467 65.2158 152.618 64.1983 152.618 63.0113H158.391C158.391 60.2979 156.523 59.6196 154.995 59.6196C152.787 59.6196 151.769 61.1458 151.769 62.6721C151.769 64.1983 152.618 65.7246 154.995 65.7246C157.033 65.7246 157.882 64.7071 158.221 63.6896H157.372V63.8592ZM152.618 62.3329C152.787 60.8067 153.976 60.2979 154.995 60.2979C156.184 60.2979 157.202 60.8067 157.372 62.3329H152.618ZM149.221 60.9763C148.882 60.1284 147.863 59.6196 146.674 59.6196C144.467 59.6196 143.448 61.1458 143.448 62.6721C143.448 65.0462 145.146 65.7246 146.504 65.7246C148.033 65.7246 148.882 65.0462 149.052 64.3679V65.3854C149.052 66.7421 148.203 67.59 146.674 67.59C144.637 67.59 144.467 66.9116 144.467 66.2333H143.618C143.618 66.9116 143.957 68.0987 146.674 68.0987C148.203 68.0987 150.07 67.59 150.07 65.3854V59.6196H149.221V60.9763ZM149.221 62.6721C149.221 64.1983 148.203 65.0462 146.844 65.0462C145.486 65.0462 144.297 64.3679 144.297 62.6721C144.297 61.1458 145.316 60.2979 146.674 60.2979C148.372 60.2979 149.221 61.3154 149.221 62.6721ZM136.825 61.6546C136.825 60.6371 137.505 60.2979 138.863 60.2979C140.222 60.2979 140.901 60.6371 140.901 61.485C140.901 61.9938 140.731 62.1633 138.863 62.3329C137.505 62.3329 135.976 62.5025 135.976 64.1983C135.976 65.555 137.335 65.8942 138.354 65.8942C140.222 65.8942 140.901 65.0463 141.071 64.7071C141.071 65.2158 141.071 65.7246 141.92 65.7246C142.259 65.7246 142.429 65.7246 142.599 65.555V65.0462C142.429 65.0462 142.259 65.0462 142.089 65.0462C141.75 65.0462 141.58 64.8767 141.58 64.3679V61.3154C141.58 60.1284 140.901 59.6196 138.863 59.6196C136.825 59.6196 136.146 60.2979 135.976 61.6546H136.825ZM140.901 63.3504C140.901 64.5375 139.542 65.2158 138.354 65.2158C137.505 65.2158 136.656 64.8767 136.656 64.0288C136.656 63.3504 137.165 63.0113 138.184 63.0113C139.882 62.8417 140.391 62.8417 140.731 62.5025V63.3504H140.901ZM133.429 65.7246H134.278V57.5846H133.429V65.7246ZM130.542 65.7246H131.391V57.5846H130.542V65.7246ZM122.052 62.6721C122.052 64.3679 123.071 65.7246 125.448 65.7246C127.656 65.7246 128.844 64.1983 128.844 62.6721C128.844 60.9763 127.825 59.6196 125.448 59.6196C123.241 59.6196 122.052 61.1458 122.052 62.6721ZM122.901 62.6721C122.901 61.3154 123.75 60.2979 125.448 60.2979C126.976 60.2979 127.995 61.3154 127.995 62.6721C127.995 64.0288 127.146 65.0462 125.448 65.0462C123.92 65.2158 122.901 64.1983 122.901 62.6721ZM119.675 62.6721C119.335 64.1983 118.486 65.2158 116.448 65.2158C113.901 65.2158 113.052 63.52 113.052 61.6546C113.052 59.2804 114.411 58.0934 116.448 58.0934C117.977 58.0934 119.335 58.7717 119.505 60.2979H120.354C120.184 58.0934 118.146 57.415 116.448 57.415C113.222 57.415 112.203 59.7892 112.203 61.6546C112.203 64.1983 113.901 65.8942 116.448 65.8942C118.826 65.8942 120.354 64.3679 120.524 62.6721H119.675ZM105.75 63.8592C105.411 64.7071 104.901 65.2158 103.373 65.2158C101.845 65.2158 100.996 64.1983 100.996 63.0113H106.769C106.769 60.2979 104.901 59.6196 103.373 59.6196C101.165 59.6196 100.147 61.1458 100.147 62.6721C100.147 64.1983 100.996 65.7246 103.373 65.7246C105.411 65.7246 106.26 64.7071 106.599 63.6896H105.75V63.8592ZM101.165 62.3329C101.335 60.8067 102.524 60.2979 103.543 60.2979C104.731 60.2979 105.75 60.8067 105.92 62.3329H101.165ZM95.5617 65.7246H96.4108V62.6721C96.4108 60.9763 97.5994 60.4675 98.4485 60.4675C98.7881 60.4675 98.9579 60.4675 99.2975 60.4675V59.6196C99.1277 59.6196 98.9579 59.6196 98.7881 59.6196C97.4296 59.6196 96.7504 60.4675 96.5806 61.1458V59.7892H95.7315V65.7246H95.5617ZM88.5995 61.6546C88.5995 60.6371 89.2788 60.2979 90.6372 60.2979C91.9957 60.2979 92.675 60.6371 92.675 61.485C92.675 61.9938 92.5051 62.1633 90.6372 62.3329C89.2788 62.3329 87.7505 62.5025 87.7505 64.1983C87.7505 65.555 89.109 65.8942 90.1278 65.8942C91.9957 65.8942 92.6749 65.0463 92.8448 64.7071C92.8448 65.2158 92.8448 65.7246 93.6938 65.7246C94.0334 65.7246 94.2032 65.7246 94.373 65.555V65.0462C94.2032 65.0462 94.0334 65.0462 93.8636 65.0462C93.524 65.0462 93.3542 64.8767 93.3542 64.3679V61.3154C93.3542 60.1284 92.6749 59.6196 90.6372 59.6196C88.5995 59.6196 87.9203 60.2979 87.7505 61.6546H88.5995ZM92.675 63.3504C92.675 64.5375 91.3165 65.2158 90.1278 65.2158C89.2788 65.2158 88.4297 64.8767 88.4297 64.0288C88.4297 63.3504 88.9391 63.0113 89.958 63.0113C91.6561 62.8417 92.1655 62.8417 92.5051 62.5025V63.3504H92.675ZM85.3732 62.6721C85.0335 64.1983 84.1845 65.2158 82.1468 65.2158C79.5996 65.2158 78.7506 63.52 78.7506 61.6546C78.7506 59.2804 80.1091 58.0934 82.1468 58.0934C83.6751 58.0934 85.0335 58.7717 85.2033 60.2979H86.0524C85.8826 58.0934 83.8449 57.415 82.1468 57.415C78.9204 57.415 77.9015 59.7892 77.9015 61.6546C77.9015 64.1983 79.5996 65.8942 82.1468 65.8942C84.5241 65.8942 86.0524 64.3679 86.2222 62.6721H85.3732ZM71.4488 63.8592C71.1092 64.7071 70.5998 65.2158 69.0715 65.2158C67.5432 65.2158 66.6941 64.1983 66.6941 63.0113H72.4677C72.4677 60.2979 70.5998 59.6196 69.0715 59.6196C66.8639 59.6196 65.8451 61.1458 65.8451 62.6721C65.8451 64.1983 66.6941 65.7246 69.0715 65.7246C71.1092 65.7246 71.9582 64.7071 72.2978 63.6896H71.4488V63.8592ZM66.6941 62.3329C66.8639 60.8067 68.0526 60.2979 69.0715 60.2979C70.2601 60.2979 71.279 60.8067 71.4488 62.3329H66.6941ZM61.5999 64.7071L59.2225 59.7892H58.3735L61.0904 65.7246H61.9395L64.6564 59.7892H63.8074L61.5999 64.7071ZM56.3358 58.7717H57.1848V57.5846H56.3358V58.7717ZM56.3358 65.7246H57.1848V59.7892H56.3358V65.7246ZM54.4679 61.485C54.2981 60.2979 53.6188 59.6196 51.5811 59.6196C49.883 59.6196 49.034 60.2979 49.034 61.3154C49.034 62.3329 49.7132 62.8417 51.5811 63.0113C53.449 63.1808 53.7886 63.52 53.7886 64.0288C53.7886 64.8767 52.9396 65.2158 51.7509 65.2158C50.2226 65.2158 49.7132 64.8767 49.5434 63.8592H48.8642C48.8642 65.2158 50.0528 65.8942 51.9207 65.8942C53.7886 65.8942 54.8075 65.2158 54.8075 64.0288C54.8075 62.8417 54.1283 62.5025 52.2603 62.3329C50.3924 62.1633 50.0528 61.9938 50.0528 61.3154C50.0528 60.4675 50.9019 60.2979 51.7509 60.2979C52.9396 60.2979 53.6188 60.6371 53.7886 61.485H54.4679ZM46.4868 65.7246H47.3359V61.9938C47.3359 60.6371 46.8264 59.6196 44.7887 59.6196C43.4303 59.6196 42.5812 60.2979 42.4114 60.9763V59.7892H41.5624V65.7246H42.4114V62.5025C42.4114 61.1459 43.0906 60.2979 44.7887 60.2979C45.8076 60.2979 46.6566 60.6371 46.6566 61.8242V65.7246H46.4868ZM38.6756 63.8592C38.336 64.7071 37.8266 65.2158 36.2983 65.2158C34.77 65.2158 33.9209 64.1983 33.9209 63.0113H39.6945C39.6945 60.2979 37.8266 59.6196 36.2983 59.6196C34.0908 59.6196 33.0719 61.1458 33.0719 62.6721C33.0719 64.1983 33.9209 65.7246 36.2983 65.7246C38.336 65.7246 39.185 64.7071 39.5247 63.6896H38.6756V63.8592ZM34.0908 62.3329C34.2606 60.8067 35.4492 60.2979 36.4681 60.2979C37.6567 60.2979 38.6756 60.8067 38.8454 62.3329H34.0908ZM29.3361 59.7892H27.9776V60.4675H29.3361V64.3679C29.3361 65.3854 29.6757 65.8942 30.8644 65.8942C31.204 65.8942 31.5436 65.8942 31.7134 65.8942V65.2158C31.5436 65.2158 31.3738 65.2158 30.8644 65.2158C30.1851 65.2158 30.0153 65.0462 30.0153 64.5375V60.6371H31.7134V59.9588H30.0153V58.0934H29.1663V59.7892H29.3361ZM25.9399 65.7246H26.789V61.9938C26.789 60.6371 26.2795 59.6196 24.2418 59.6196C22.8833 59.6196 22.0343 60.2979 21.8645 60.9763V59.7892H21.0154V65.7246H21.6947V62.5025C21.6947 61.1459 22.3739 60.2979 24.072 60.2979C25.0909 60.2979 25.9399 60.6371 25.9399 61.8242V65.7246ZM17.7891 65.7246H18.6381V57.5846H17.7891V65.7246Z" fill="white"/>
<path d="M178.435 4.167H179.454C179.794 4.167 180.133 3.99741 180.133 3.65825C180.133 3.31908 179.794 2.97992 179.284 2.97992H178.435V4.167ZM177.756 2.30159H179.284C180.133 2.30159 181.152 2.47117 181.152 3.82783C181.152 4.67575 180.643 4.84533 180.303 5.01491L181.152 7.0499H180.303L179.624 5.18449H178.605V6.88032H177.756V2.30159ZM179.284 8.23697C181.322 8.23697 183.02 6.54115 183.02 4.50616C183.02 2.47117 181.322 0.775348 179.284 0.775348C177.247 0.775348 175.548 2.47117 175.548 4.50616C175.548 6.71073 177.247 8.23697 179.284 8.23697ZM175.039 4.67575C175.039 2.30159 177.077 0.266602 179.454 0.266602C181.831 0.266602 183.869 2.30159 183.869 4.67575C183.869 7.0499 182.001 9.08489 179.454 9.08489C176.907 8.9153 175.039 7.0499 175.039 4.67575Z" fill="white"/>
</svg>
